<?xml version="1.0" standalone="no"?>
<!DOCTYPE svg PUBLIC "-//W3C//DTD SVG 20010904//EN"
 "http://www.w3.org/TR/2001/REC-SVG-20010904/DTD/svg10.dtd">
<svg version="1.0" xmlns="http://www.w3.org/2000/svg"
 width="500.000000pt" height="500.000000pt" viewBox="0 0 500.000000 500.000000"
 preserveAspectRatio="xMidYMid meet">

<g transform="translate(0.000000,500.000000) scale(0.100000,-0.100000)"
fill="#000000" stroke="none">
<path d="M0 2500 l0 -2500 2500 0 2500 0 0 2500 0 2500 -2500 0 -2500 0 0
-2500z m2992 1081 c56 -27 103 -77 132 -140 19 -41 21 -64 21 -211 0 -152 -2
-169 -24 -217 -21 -48 -88 -123 -110 -123 -4 0 -11 55 -14 123 -7 161 -23 205
-101 282 -94 94 -101 95 -502 95 -251 0 -334 3 -334 12 0 29 46 101 87 138 76
67 94 70 468 67 324 -2 331 -2 377 -26z m-2082 -1461 l0 -30 -95 0 -95 0 0
-45 0 -44 83 -3 82 -3 3 -32 3 -33 -85 0 -86 0 0 -75 0 -75 -35 0 -35 0 0 185
0 185 130 0 130 0 0 -30z m257 4 c61 -45 66 -103 12 -156 l-30 -30 46 -73 c25
-40 45 -75 45 -79 0 -3 -16 -6 -35 -6 -33 0 -37 4 -81 80 -32 56 -51 80 -65
80 -17 0 -19 -8 -19 -80 l0 -80 -35 0 -35 0 0 186 0 186 84 -3 c66 -3 91 -9
113 -25z m343 -119 c31 -77 64 -159 73 -182 l17 -43 -36 0 c-32 0 -37 4 -51
40 l-16 40 -69 0 -70 0 -15 -40 c-14 -36 -20 -40 -50 -40 -18 0 -33 3 -33 8 0
4 32 87 72 185 68 167 74 178 97 175 22 -3 32 -20 81 -143z m254 78 c14 -38
36 -97 49 -132 l24 -64 48 132 48 131 44 0 43 0 0 -185 0 -185 -30 0 -30 0 -1
133 0 132 -18 -45 c-10 -25 -30 -78 -45 -117 -27 -70 -29 -73 -60 -73 -31 0
-32 2 -70 103 -20 56 -41 109 -46 117 -6 10 -10 -32 -10 -117 l0 -133 -30 0
-30 0 0 185 0 185 44 0 44 0 26 -67z m416 -118 l0 -185 -30 0 -30 0 0 185 0
185 30 0 30 0 0 -185z m170 30 l0 -155 75 0 75 0 0 -30 0 -30 -110 0 -110 0 0
185 0 185 35 0 35 0 0 -155z m281 80 c24 -41 46 -75 50 -75 4 0 27 34 50 75
42 73 44 75 81 75 21 0 38 -2 38 -5 0 -3 -29 -53 -65 -110 -65 -105 -65 -106
-65 -180 l0 -75 -35 0 -35 0 0 70 c0 66 -3 74 -48 148 -27 42 -58 94 -71 115
l-23 37 41 0 c39 0 40 -1 82 -75z m628 60 c16 -8 41 -29 56 -47 25 -30 26 -33
9 -45 -26 -19 -39 -16 -72 17 -44 44 -102 42 -148 -4 -30 -30 -34 -40 -34 -85
0 -89 37 -131 115 -131 27 0 44 8 67 30 33 33 46 36 72 17 17 -12 16 -15 -9
-45 -38 -46 -80 -65 -141 -64 -65 0 -107 22 -139 71 -62 93 -32 240 57 284 41
21 130 22 167 2z m211 -60 l0 -75 80 0 80 0 0 75 0 75 30 0 30 0 0 -185 0
-185 -30 0 -30 0 0 75 0 75 -80 0 -80 0 0 -75 0 -75 -35 0 -35 0 0 185 0 185
35 0 35 0 0 -75z m530 -70 c31 -77 64 -159 73 -182 l17 -43 -36 0 c-32 0 -37
4 -51 40 l-16 40 -69 0 -70 0 -15 -40 c-14 -36 -20 -40 -50 -40 -18 0 -33 3
-33 8 0 4 32 87 72 185 68 167 74 178 97 175 22 -3 32 -20 81 -143z m390 115
c0 -30 -1 -30 -55 -30 l-55 0 0 -155 0 -155 -35 0 -35 0 0 155 0 155 -55 0
c-54 0 -55 0 -55 30 l0 30 145 0 145 0 0 -30z"/>
<path d="M1040 2040 c0 -50 0 -50 33 -50 39 0 77 24 77 50 0 26 -38 50 -77 50
-33 0 -33 0 -33 -50z"/>
<path d="M1402 1980 l-21 -60 44 0 c25 0 45 3 45 8 0 10 -35 100 -41 106 -3 3
-15 -21 -27 -54z"/>
<path d="M3892 1980 l-21 -60 44 0 c25 0 45 3 45 8 0 10 -35 100 -41 106 -3 3
-15 -21 -27 -54z"/>
</g>
</svg>
